<svg xmlns="http://www.w3.org/2000/svg" width="24" height="24" viewBox="0 0 24 24" fill="none" stroke="currentColor" stroke-width="2" stroke-linecap="round" stroke-linejoin="round"><rect x="8" y="8" width="8" height="8" rx="2" ry="2"/><path d="M4 16h1.5a2.5 2.5 0 0 1 2.5 2.5V20a2 2 0 0 1-4 0v-2.5A1.5 1.5 0 0 1 4 16z"/><path d="M4 8h1.5A2.5 2.5 0 0 0 8 5.5V4a2 2 0 0 0-4 0v1.5A1.5 1.5 0 0 0 4 8z"/><path d="M20 16h-1.5a2.5 2.5 0 0 0-2.5 2.5V20a2 2 0 0 0 4 0v-2.5A1.5 1.5 0 0 0 20 16z"/><path d="M20 8h-1.5A2.5 2.5 0 0 1 16 5.5V4a2 2 0 0 1 4 0v1.5A1.5 1.5 0 0 1 20 8z"/></svg>
